<svg width="87.2" height="16" viewBox="0 0 109 20" fill="#f04e53" stroke-width="0" xmlns="http://www.w3.org/2000/svg">
    <path stroke-width="0" d="M32.046 14.847a4.879 4.879 0 01-2.707-.81 4.851 4.851 0 01-1.798-2.174 4.83 4.83 0 011.047-5.286 4.872 4.872 0 015.304-1.057c.89.367 1.65.988 2.186 1.785a4.836 4.836 0 01-.6 6.119 4.87 4.87 0 01-3.432 1.423zm0-14.847a10.068 10.068 0 00-4.833 1.223 10.022 10.022 0 00-3.646 3.39 9.974 9.974 0 002.512 13.445 10.06 10.06 0 009.577 1.264 10.038 10.038 0 004.054-2.892c-.663 1.229-1.622 2.258-2.732 2.905v.516h5.08V9.948a9.974 9.974 0 00-2.947-7.03A10.05 10.05 0 0032.046 0zm48.176 14.944h-6.608V11.7h6.483c.81 0 1.756.76 1.756 1.623 0 .626-.492 1.623-1.631 1.623zm-6.608-9.88l5.55-.003c.601 0 1.595.619 1.595 1.609 0 .79-.644 1.64-1.762 1.64h-5.383V5.062zm11.122 4.338c1.205-1.825 1.316-4.32.215-6.185A6.208 6.208 0 0082.698.993a6.238 6.238 0 00-3.06-.829H68.532V19.85l12.425-.008c3.898 0 6.073-3.205 6.073-5.894 0-2.587-1.477-3.885-2.295-4.548zM63.509 7.418c1.667 4.482 1.752 8.548 1.752 12.433h-5.157c0-3.151-.111-6.02-.773-8.615-.888-3.477-2.54-6.005-4.076-6.005-1.535 0-3.189 2.528-4.076 6.005-.662 2.595-.772 5.39-.772 8.615H45.25c0-3.535.084-7.951 1.751-12.433C48.555 3.243 51.46 0 55.256 0c3.796 0 6.698 3.243 8.253 7.418zM14.867.163h5.159v2.074a9.961 9.961 0 01-.974 4.304 9.998 9.998 0 01-2.738 3.466 9.998 9.998 0 012.738 3.467 9.961 9.961 0 01.974 4.304v2.074h-5.16v-2.593a4.826 4.826 0 00-1.42-3.42 4.863 4.863 0 00-6.864 0 4.826 4.826 0 00-1.422 3.42v2.592H0v-2.074a9.962 9.962 0 01.974-4.304 10 10 0 012.74-3.466A9.998 9.998 0 01.973 6.54 9.961 9.961 0 010 2.236V.163h5.16v2.592c0 1.282.511 2.512 1.421 3.419a4.863 4.863 0 006.864 0 4.826 4.826 0 001.422-3.42V.164zm84.12 14.684a4.877 4.877 0 01-2.706-.81 4.832 4.832 0 01-.751-7.46 4.88 4.88 0 017.49.729 4.836 4.836 0 01-.599 6.118 4.871 4.871 0 01-3.434 1.423zM109 9.948a9.974 9.974 0 00-2.38-6.404 10.042 10.042 0 00-5.952-3.386 10.064 10.064 0 00-6.746 1.213 10.002 10.002 0 00-4.389 5.245 9.958 9.958 0 00.018 6.829 10.002 10.002 0 004.415 5.223 10.064 10.064 0 006.752 1.179 10.04 10.04 0 005.935-3.416c-.663 1.228-1.622 2.257-2.733 2.904v.516H109V9.948h-.001z"></path>
</svg>