<svg width="108" height="40" viewBox="0 0 108 40" fill="none" xmlns="http://www.w3.org/2000/svg">
<path d="M4.14767 4.32387C4.80302 3.65154 5.58404 3.11439 6.4464 2.7429C7.37294 2.34658 8.37187 2.14749 9.37959 2.15832C10.1412 2.15882 10.8974 2.28681 11.6168 2.53699C12.3379 2.77971 13.0186 3.12913 13.6361 3.57362C13.7093 3.62936 13.7887 3.67623 13.8729 3.71325C13.936 3.73915 14.0019 3.75743 14.0694 3.76769C14.1561 3.75896 14.2394 3.72889 14.3117 3.68015C14.384 3.63142 14.443 3.56555 14.4837 3.48841L14.995 2.68373C15.0395 2.62019 15.0783 2.55288 15.111 2.48256C15.1454 2.41588 15.1641 2.3422 15.1655 2.26718C15.1674 2.22369 15.1604 2.18026 15.1449 2.13956C15.1295 2.09886 15.1058 2.06175 15.0755 2.03051C15.003 1.95767 14.9237 1.8919 14.8388 1.83408C14.0441 1.25399 13.1661 0.797561 12.2347 0.480311C10.4838 -0.102256 8.59906 -0.150867 6.82045 0.340671C6.04064 0.560275 5.29203 0.878404 4.59274 1.28736C3.90042 1.68755 3.26367 2.17692 2.69883 2.7429C2.13552 3.31005 1.64631 3.94624 1.24289 4.63628C0.201177 6.41034 -0.222197 8.47984 0.0391479 10.5203C0.300492 12.5608 1.23178 14.4569 2.687 15.9113C3.2537 16.4752 3.89016 16.9643 4.58091 17.3669C5.27665 17.7779 6.02318 18.0962 6.80151 18.3136C8.60238 18.7989 10.506 18.7462 12.2773 18.1621C13.1879 17.8496 14.0472 17.4038 14.8269 16.8391C14.9083 16.8031 14.9779 16.745 15.0277 16.6713C15.0775 16.5976 15.1056 16.5114 15.1087 16.4226C15.1093 16.3036 15.0799 16.1864 15.0234 16.0818L14.4789 15.1564C14.3558 14.9528 14.2185 14.8511 14.0646 14.8511C13.9992 14.8554 13.9358 14.8757 13.88 14.9102C13.7974 14.9556 13.7183 15.007 13.6432 15.0641C13.5651 15.1256 13.4846 15.1848 13.4065 15.2463C13.333 15.3015 13.2536 15.3483 13.1698 15.3859C12.839 15.5915 12.495 15.7749 12.14 15.935C11.8326 16.0743 11.5162 16.1929 11.193 16.29C10.8915 16.3773 10.5836 16.4406 10.2721 16.4794C9.9617 16.5155 9.64947 16.5337 9.33698 16.5338C8.39882 16.5329 7.47047 16.3429 6.60738 15.9752C5.75251 15.6181 4.97144 15.1053 4.30392 14.4629C3.63117 13.8135 3.08878 13.0415 2.70594 12.1885C2.30429 11.3018 2.10071 10.3383 2.10936 9.36499C2.10757 7.48363 2.83866 5.67552 4.14767 4.32387Z" fill="#333333"></path>
<path d="M35.092 17.6699L28.068 0.719406C28.0174 0.616623 27.958 0.518427 27.8904 0.425931C27.8377 0.368062 27.7721 0.323518 27.6988 0.295952C27.6256 0.268387 27.5468 0.258586 27.469 0.267361H26.7588C26.6774 0.257227 26.5947 0.266293 26.5174 0.293829C26.4402 0.321364 26.3704 0.366604 26.3137 0.425931C26.2452 0.515613 26.1894 0.614383 26.148 0.719406C26.1338 0.769108 26.0959 0.859044 26.0391 0.993947L25.7716 1.62113C25.6485 1.90513 25.4773 2.31379 25.2579 2.84709C25.0385 3.38039 24.7584 4.05333 24.4175 4.86591C24.0734 5.67848 23.6544 6.68039 23.1604 7.87165C22.6664 9.0629 22.0832 10.4648 21.4109 12.0773C20.7386 13.6914 19.9636 15.5556 19.0861 17.6699C19.0688 17.6957 19.0567 17.7246 19.0506 17.7551C19.0338 17.8329 19.0251 17.9122 19.0246 17.9918C19.0246 18.2521 19.1998 18.3823 19.5501 18.3823H20.5989C20.7485 18.3855 20.8951 18.3395 21.0161 18.2514C21.1371 18.1634 21.2259 18.0381 21.2688 17.8947L22.649 14.418H31.5173L32.9377 17.9184C32.9898 18.0508 33.0765 18.1668 33.1886 18.2545C33.3059 18.3421 33.4495 18.3872 33.5958 18.3823H34.6469C34.7852 18.3877 34.9222 18.3541 35.0423 18.2852C35.0913 18.2542 35.1312 18.2106 35.1579 18.159C35.1845 18.1075 35.1969 18.0497 35.1938 17.9918C35.1907 17.9289 35.1763 17.8672 35.1512 17.8095C35.1271 17.7649 35.1073 17.7182 35.092 17.6699ZM23.5179 12.3282L27.1021 3.40327L30.6532 12.3282H23.5179Z" fill="#333333"></path>
<path d="M50.8778 2.20805C50.9801 2.0938 51.0352 1.94486 51.0316 1.79151V0.792753C51.029 0.715653 51.0101 0.639974 50.9763 0.570649C50.9424 0.501325 50.8943 0.439912 50.8351 0.390411C50.7246 0.301434 50.5864 0.253732 50.4445 0.255506H37.8974C37.8251 0.252587 37.7529 0.264054 37.685 0.289243C37.6171 0.314432 37.5549 0.352844 37.502 0.402245C37.4504 0.452924 37.4101 0.513877 37.3836 0.581151C37.3571 0.648425 37.345 0.720516 37.3482 0.792753V1.79151C37.3412 1.87267 37.3513 1.95439 37.3778 2.03142C37.4043 2.10845 37.4466 2.1791 37.502 2.23882C37.6109 2.33448 37.7525 2.38449 37.8974 2.37846H43.1317V17.8166C43.1286 17.8899 43.1412 17.9631 43.1685 18.0313C43.1958 18.0994 43.2374 18.1609 43.2903 18.2118C43.3437 18.2631 43.4068 18.3031 43.4759 18.3295C43.5451 18.3559 43.6188 18.3682 43.6927 18.3657H44.6799C44.7575 18.3711 44.8352 18.3598 44.908 18.3324C44.9807 18.305 45.0466 18.2623 45.1013 18.2071C45.1946 18.0987 45.2444 17.9596 45.241 17.8166V2.37609H50.4493C50.5286 2.38058 50.6079 2.36789 50.6819 2.33889C50.7558 2.30989 50.8226 2.26526 50.8778 2.20805Z" fill="#333333"></path>
<path d="M68.1927 15.3033C68.5535 14.5722 68.7353 13.7658 68.723 12.9507C68.7326 12.4357 68.6392 11.924 68.4484 11.4455C68.2711 11.0185 68.0167 10.6279 67.698 10.2929C67.3718 9.9519 66.9978 9.66011 66.5877 9.42668C66.1536 9.17805 65.7009 8.96361 65.2335 8.7853C64.76 8.60306 64.2605 8.43976 63.7515 8.29302C63.2425 8.14628 62.7501 8.00901 62.2696 7.87884C61.7408 7.7321 61.2184 7.57432 60.7023 7.4055C60.2214 7.25786 59.7559 7.06366 59.3127 6.82565C58.9316 6.62734 58.5917 6.35826 58.3113 6.0328C58.0569 5.73135 57.9207 5.34787 57.9278 4.95357C57.9344 4.59161 58.0149 4.23481 58.1645 3.90511C58.3261 3.53962 58.569 3.21582 58.8747 2.95842C59.2355 2.65507 59.6521 2.42513 60.101 2.28154C60.6764 2.09912 61.2779 2.01276 61.8813 2.02593C62.3692 2.02237 62.8547 2.09422 63.3207 2.23894C63.7466 2.37203 64.1589 2.54559 64.5517 2.75725C64.9022 2.94556 65.2371 3.16162 65.5531 3.40337C65.8467 3.63057 66.0905 3.82938 66.2846 3.99978C66.3955 4.13232 66.5532 4.21708 66.725 4.23645C66.8529 4.2254 66.9712 4.16413 67.054 4.06605L67.7856 3.35603C67.8411 3.30919 67.8869 3.25183 67.9202 3.18725C67.9535 3.12267 67.9737 3.05214 67.9797 2.97972C67.9699 2.84995 67.9136 2.72808 67.8211 2.63655C67.7169 2.51585 67.6104 2.39988 67.5038 2.29574C67.149 1.94337 66.7569 1.63069 66.3343 1.36325C65.8951 1.08201 65.4335 0.837408 64.9542 0.631934C64.4749 0.426918 63.977 0.268409 63.4674 0.158589C62.9748 0.0473144 62.4716 -0.00982621 61.9665 -0.0118154C61.0911 -0.0224866 60.2192 0.101235 59.3813 0.355028C58.6618 0.570132 57.9906 0.922115 57.4046 1.39165C56.8631 1.82812 56.428 2.38203 56.1323 3.01144C55.8366 3.64085 55.688 4.32926 55.6977 5.02457C55.6851 5.5988 55.8126 6.16745 56.0694 6.68128C56.3442 7.19036 56.7272 7.63306 57.1915 7.97824C57.7665 8.40745 58.3983 8.75473 59.0688 9.01014C59.9273 9.34441 60.8057 9.62501 61.699 9.85032C62.3335 10.0136 62.9466 10.1793 63.5408 10.3521C64.0866 10.5033 64.6157 10.7095 65.1199 10.9674C65.543 11.1776 65.9172 11.4744 66.2183 11.8384C66.4962 12.1972 66.6402 12.6416 66.6255 13.0951C66.6304 13.4623 66.562 13.8268 66.4243 14.1672C66.2943 14.4885 66.1083 14.7842 65.8751 15.0406C65.6381 15.3009 65.3656 15.5264 65.0654 15.7103C64.7551 15.9015 64.4259 16.0601 64.083 16.1837C63.7386 16.3093 63.3837 16.4035 63.0224 16.4653C62.6734 16.5237 62.3203 16.5538 61.9665 16.5553C61.6101 16.5475 61.2557 16.4983 60.9107 16.4085C60.472 16.3016 60.0435 16.1566 59.6299 15.9754C59.1691 15.7742 58.725 15.5368 58.3018 15.2654C57.8627 14.9877 57.4589 14.6579 57.0992 14.2832L57.014 14.198L56.8814 14.0702C56.8341 14.0265 56.7825 13.9877 56.7275 13.9542C56.679 13.9222 56.6223 13.905 56.5642 13.9045C56.4992 13.9054 56.435 13.9182 56.3748 13.9424C56.3071 13.965 56.2433 13.9978 56.1854 14.0394L55.4041 14.6855C55.3402 14.7296 55.2871 14.7877 55.249 14.8554C55.2108 14.923 55.1886 14.9985 55.184 15.076C55.2019 15.239 55.2706 15.3922 55.3805 15.5139C55.7646 16.0119 56.2091 16.4603 56.7038 16.8487C57.1904 17.2327 57.7204 17.5584 58.2829 17.8191C58.8446 18.0794 59.4338 18.2755 60.0395 18.4037C60.6527 18.5346 61.278 18.6004 61.905 18.6001C62.8111 18.6069 63.7128 18.4727 64.5778 18.2025C65.3638 17.9618 66.0994 17.58 66.7486 17.0759C67.3535 16.5973 67.8464 15.9923 68.1927 15.3033Z" fill="#333333"></path>
<path d="M88.1166 10.5129C87.8907 10.1243 87.6118 9.76907 87.288 9.45736C86.9668 9.14825 86.6052 8.88394 86.2132 8.67161C86.737 8.21159 87.1559 7.64459 87.4418 7.0089C87.7277 6.3732 87.8738 5.6836 87.8704 4.98662C87.8833 4.0417 87.6061 3.11553 87.0761 2.33303C86.5461 1.55053 85.7888 0.949345 84.9064 0.610547C84.2927 0.370155 83.6385 0.249643 82.9794 0.255538H76.0169C75.6428 0.255538 75.4558 0.451979 75.4558 0.842488V17.8285C75.4515 17.9023 75.4634 17.9762 75.4908 18.0449C75.5182 18.1137 75.5604 18.1755 75.6144 18.2261C75.7265 18.3211 75.87 18.3709 76.0169 18.3657H83.7985C84.4887 18.3715 85.1717 18.2253 85.7989 17.9373C86.4019 17.6645 86.9449 17.2752 87.3969 16.7918C87.8472 16.3088 88.2051 15.7473 88.4527 15.1351C88.7093 14.5014 88.8395 13.8236 88.8363 13.14C88.8381 12.6766 88.7743 12.2152 88.6469 11.7697C88.5243 11.3299 88.3461 10.9076 88.1166 10.5129ZM77.5651 2.34062H82.9581C83.3381 2.33656 83.7157 2.40068 84.0731 2.52996C84.3968 2.64485 84.6929 2.82639 84.942 3.06285C85.1912 3.2993 85.388 3.58541 85.5196 3.90266C85.6614 4.25113 85.7315 4.62464 85.7255 5.00082C85.7281 5.39208 85.6583 5.78044 85.5196 6.14631C85.3878 6.49566 85.191 6.81689 84.9396 7.093C84.6898 7.36146 84.3887 7.57714 84.0542 7.72729C83.7061 7.88477 83.3282 7.96549 82.9462 7.96396H77.5651V2.34062ZM86.4712 14.3399C86.3235 14.711 86.1102 15.0525 85.8415 15.3481C85.5796 15.6345 85.2654 15.8682 84.9159 16.0369C84.563 16.207 84.176 16.2944 83.7843 16.2925H77.5651V10.023H83.7843C84.1808 10.0215 84.5725 10.1097 84.9301 10.281C85.283 10.4475 85.5999 10.6814 85.8628 10.9697C86.1295 11.2602 86.3405 11.5971 86.4854 11.9637C86.6399 12.3343 86.7203 12.7315 86.7222 13.1329C86.7177 13.5477 86.6325 13.9577 86.4712 14.3399Z" fill="#333333"></path>
<path d="M107.707 0.246034H106.038C105.933 0.257755 105.831 0.290775 105.74 0.34307C105.631 0.429681 105.542 0.537624 105.477 0.660211L100.879 8.21006L96.3529 0.759613L96.1754 0.489806C96.14 0.43359 96.097 0.382603 96.0475 0.338336C96.0116 0.302629 95.9651 0.279401 95.9149 0.272068C95.8652 0.272068 95.8013 0.255501 95.7184 0.246034H94.1323C93.8956 0.246034 93.7677 0.331236 93.7677 0.50164C93.7851 0.636374 93.8401 0.763496 93.9263 0.868483L99.8306 10.4419V17.7787C99.8306 18.1598 100.001 18.3515 100.342 18.3515H101.391C101.758 18.3515 101.94 18.1598 101.94 17.7787V10.378C102.956 8.76861 103.948 7.17265 104.916 5.5901C105.883 4.00755 106.867 2.41238 107.868 0.804581C107.913 0.747639 107.948 0.683663 107.972 0.615242C107.989 0.570342 107.999 0.52335 108.003 0.475606C108 0.328869 107.903 0.246034 107.707 0.246034Z" fill="#333333"></path>
<path d="M34.2562 31.8039H29.0124C28.8491 31.8039 28.7757 31.8939 28.7757 32.069V39.7703C28.7728 39.8034 28.7778 39.8367 28.7901 39.8675C28.8025 39.8983 28.8218 39.9258 28.8467 39.9478C28.897 39.984 28.9575 40.0031 29.0195 40.0023H30.1606C30.3239 40.0023 30.3973 39.9242 30.3973 39.7656V36.9729H33.3589C33.3924 36.9759 33.426 36.9703 33.4567 36.9566C33.4874 36.943 33.514 36.9217 33.5341 36.8948C33.5721 36.8444 33.5921 36.7827 33.5909 36.7196V35.7256C33.5946 35.6905 33.5899 35.655 33.5771 35.6221C33.5643 35.5892 33.5439 35.5597 33.5175 35.5363C33.4641 35.4994 33.4001 35.4811 33.3352 35.4842H30.3997V33.3092H34.2467C34.2846 33.3122 34.3228 33.3067 34.3584 33.2932C34.394 33.2797 34.4262 33.2585 34.4526 33.2311C34.4759 33.2083 34.4942 33.181 34.5064 33.1509C34.5186 33.1208 34.5245 33.0884 34.5237 33.0559V32.0832C34.5257 32.0112 34.5041 31.9406 34.4621 31.882C34.4367 31.8533 34.4047 31.8312 34.3688 31.8176C34.3329 31.804 34.2942 31.7993 34.2562 31.8039Z" fill="#333333"></path>
<path d="M40.5038 31.8584C40.4495 31.8195 40.3835 31.8003 40.3168 31.804H39.6752C39.5994 31.7979 39.5237 31.817 39.4598 31.8584C39.4164 31.8932 39.3809 31.9367 39.3556 31.9862C38.2887 34.588 37.4791 36.5382 36.9267 37.8367C36.3751 39.1361 36.0981 39.7869 36.0981 39.7964C36.0964 39.824 36.1004 39.8517 36.1097 39.8777C36.1191 39.9038 36.1337 39.9276 36.1526 39.9479C36.2069 39.9884 36.2745 40.007 36.342 39.9999H37.4902C37.5389 40.0006 37.5862 39.9837 37.6236 39.9525C37.6609 39.9212 37.6858 39.8776 37.6937 39.8295L38.2406 38.542H41.7396L42.2865 39.8295C42.301 39.8819 42.3307 39.9288 42.3717 39.9644C42.42 39.9913 42.4751 40.0037 42.5303 39.9999H43.5885C43.7187 39.9999 43.8016 39.9763 43.8253 39.9313C43.8614 39.889 43.8815 39.8354 43.8821 39.7798V39.7467L40.5962 31.9862C40.5751 31.9374 40.5436 31.8938 40.5038 31.8584ZM38.8206 37.0368L40.0043 34.1825L41.1714 37.0368H38.8206Z" fill="#333333"></path>
<path d="M55.1391 31.8915C55.1118 31.8627 55.0786 31.84 55.0419 31.825C55.0052 31.8099 54.9657 31.8027 54.926 31.8039H53.6453C53.5752 31.8029 53.5069 31.8254 53.4512 31.8678C53.3915 31.9192 53.3493 31.9878 53.3304 32.0643L51.3726 37.4036L50.357 34.6274C50.2031 34.2085 50.0445 33.7802 49.8835 33.3447C49.7225 32.9092 49.5663 32.4784 49.41 32.0548C49.3876 31.9871 49.3485 31.926 49.2964 31.8773C49.2718 31.8539 49.2428 31.8356 49.2111 31.8234C49.1795 31.8112 49.1457 31.8054 49.1117 31.8063H47.8239C47.7838 31.8049 47.7439 31.8119 47.7068 31.827C47.6697 31.8421 47.6362 31.8649 47.6085 31.8939C47.555 31.948 47.5223 32.0192 47.5161 32.095L46.7325 39.6922C46.7325 39.8981 46.8272 40.0023 47.019 40.0023H48.0369C48.0797 40.0065 48.1228 40.0017 48.1636 39.9883C48.2044 39.9748 48.2419 39.953 48.2737 39.9242C48.3275 39.8678 48.3586 39.7937 48.3613 39.7159L48.875 34.7647C49.1686 35.5741 49.4637 36.378 49.7604 37.1764C50.0571 37.9748 50.3507 38.7779 50.6411 39.5857C50.6728 39.6413 50.711 39.6929 50.7547 39.7396C50.7723 39.7636 50.7951 39.7835 50.8212 39.7978C50.8474 39.8121 50.8764 39.8205 50.9062 39.8224H51.839C51.8705 39.8192 51.9009 39.8093 51.9282 39.7934C51.9556 39.7774 51.9792 39.7559 51.9976 39.7301C52.0472 39.6763 52.0901 39.6167 52.1254 39.5526L53.8915 34.7623L54.4099 39.7135C54.4134 39.7916 54.4454 39.8657 54.4999 39.9218C54.5292 39.9493 54.5639 39.9704 54.6018 39.9839C54.6397 39.9973 54.68 40.0028 54.7201 39.9999H55.7238C55.7622 40.0018 55.8006 39.9961 55.8368 39.9831C55.8729 39.9701 55.9061 39.9501 55.9345 39.9242C55.9621 39.8954 55.9833 39.8611 55.9968 39.8236C56.0102 39.7861 56.0156 39.7462 56.0127 39.7064L55.2267 32.0927C55.2226 32.0173 55.1915 31.9459 55.1391 31.8915Z" fill="#333333"></path>
<path d="M61.2467 31.8702C61.1963 31.831 61.1352 31.8079 61.0715 31.8039H59.9564C59.9226 31.8024 59.8888 31.8081 59.8573 31.8208C59.8259 31.8335 59.7975 31.8527 59.7742 31.8773C59.7335 31.9247 59.7116 31.9853 59.7126 32.0477V39.7561C59.7093 39.788 59.7131 39.8203 59.7238 39.8505C59.7345 39.8807 59.7518 39.9082 59.7745 39.9309C59.7972 39.9536 59.8247 39.9709 59.8549 39.9816C59.8852 39.9923 59.9174 39.9961 59.9493 39.9928H61.0644C61.2443 39.9928 61.3343 39.9123 61.3343 39.7561V32.0477C61.3357 32.0131 61.3285 31.9788 61.3132 31.9477C61.2979 31.9167 61.275 31.89 61.2467 31.8702Z" fill="#333333"></path>
<path d="M70.8463 38.4923H67.6172V32.0359C67.6054 31.8749 67.5249 31.7992 67.3805 31.7992H66.256C66.2216 31.7976 66.1872 31.8031 66.1551 31.8153C66.1229 31.8275 66.0936 31.8462 66.0689 31.8702C66.0467 31.8926 66.0292 31.9192 66.0174 31.9485C66.0056 31.9777 65.9998 32.0091 66.0003 32.0406V39.7609C65.9969 39.7928 66.0008 39.825 66.0115 39.8552C66.0222 39.8855 66.0395 39.9129 66.0622 39.9356C66.0849 39.9583 66.1124 39.9756 66.1426 39.9864C66.1729 39.9971 66.2051 40.0009 66.237 39.9975H70.8463C71.0073 39.9857 71.083 39.9052 71.083 39.7609V38.7526C71.0847 38.7183 71.0792 38.6839 71.067 38.6518C71.0548 38.6196 71.0361 38.5903 71.012 38.5657C70.9906 38.5432 70.9649 38.5251 70.9365 38.5125C70.908 38.4999 70.8774 38.493 70.8463 38.4923Z" fill="#333333"></path>
<path d="M79.0756 31.8039H77.6291C77.5855 31.8093 77.5436 31.8239 77.506 31.8465C77.4543 31.8963 77.4118 31.9548 77.3805 32.0193C77.2432 32.256 77.1012 32.5187 76.9521 32.7909C76.8029 33.063 76.6632 33.3186 76.5354 33.5648L75.7352 35.0369L75.1884 34.0287C75.0037 33.6902 74.8214 33.3518 74.6415 33.0181L74.2509 32.2726L74.1065 32.0477C74.0733 31.9909 74.0449 31.9507 74.0236 31.9199C74.0062 31.8959 73.9863 31.8737 73.9644 31.8536C73.947 31.84 73.9268 31.8303 73.9052 31.8252C73.878 31.822 73.8511 31.8165 73.8247 31.8087H72.4043C72.3575 31.8067 72.3117 31.8228 72.2765 31.8536C72.2607 31.8675 72.2483 31.8846 72.2401 31.9039C72.2319 31.9231 72.2282 31.944 72.2291 31.9649C72.2302 31.9889 72.2366 32.0124 72.2481 32.0335C72.2611 32.0634 72.2769 32.0919 72.2954 32.1187C72.2957 32.1251 72.2973 32.1314 72.3001 32.1371C72.303 32.1428 72.307 32.1478 72.312 32.1519L73.3158 33.8512L74.9066 36.535V39.6851C74.9066 39.8958 74.9966 39.9999 75.1812 39.9999H76.2347C76.2773 40.006 76.3207 40.002 76.3614 39.9883C76.4022 39.9745 76.4391 39.9514 76.4693 39.9208C76.4995 39.8902 76.522 39.8529 76.5351 39.812C76.5483 39.771 76.5516 39.7276 76.5449 39.6851V36.5232C76.7027 36.2376 76.8755 35.9441 77.0633 35.6428C77.2432 35.3422 77.4161 35.0487 77.5818 34.7576L79.1513 32.1306C79.1692 32.1012 79.1842 32.0703 79.1963 32.0382C79.2095 32.0117 79.2168 31.9827 79.2176 31.9531C79.2186 31.9137 79.2041 31.8755 79.1774 31.8465C79.1501 31.8199 79.1137 31.8046 79.0756 31.8039Z" fill="#333333"></path>
</svg>