<svg width="40" height="40" viewBox="-2 -2 40 40" fill="none" stroke="#333333" xmlns="http://www.w3.org/2000/svg">
    <path d="M24.5021 11.2164L24.5021 11.2163L24.4971 11.2278L24.4971 11.2279L24.4971 11.2279L24.497 11.2281L24.4967 11.2288L24.4943 11.2342L24.4837 11.2586C24.4739 11.2807 24.459 11.3144 24.439 11.3585C24.399 11.4469 24.339 11.5771 24.2605 11.7407C24.1034 12.0682 23.8733 12.5276 23.583 13.0512C23.0004 14.1019 22.1963 15.3726 21.2752 16.3593C21.1361 16.4917 21.0231 16.5947 20.9297 16.6751V11.767C20.9297 11.3901 20.8808 10.9172 20.5847 10.5393C20.2491 10.111 19.7627 10 19.342 10H15.0098C14.1705 10 13.5083 10.6292 13.5083 11.4047C13.5083 11.8001 13.6731 12.0923 13.8171 12.2912C13.8845 12.3843 13.9589 12.4723 14.016 12.5397L14.0172 12.5411L14.0237 12.5488C14.0834 12.6194 14.1337 12.6787 14.1839 12.7439C14.3563 12.9677 14.5597 13.2943 14.6036 13.9925V17.7705C14.5835 17.7513 14.5628 17.731 14.5415 17.7097C14.227 17.3951 13.8462 16.9158 13.4362 16.2974C12.6188 15.0649 11.7419 13.3669 11.0888 11.5519L11.0881 11.5499C10.9484 11.1648 10.7605 10.7432 10.4122 10.4372C10.028 10.0997 9.56829 10 9.10214 10H6.34524C5.85269 10 5.36509 10.1081 5.01283 10.4588C4.65512 10.8149 4.60002 11.259 4.60002 11.5441C4.60002 11.8355 4.68548 12.2716 4.83029 12.7781C4.98199 13.3089 5.21801 13.982 5.56072 14.7715C6.24622 16.3506 7.36482 18.4096 9.10856 20.7424C11.5078 24.0268 14.9392 25.88 18.1605 25.88C19.0351 25.88 19.7446 25.798 20.2336 25.4851C20.5151 25.3049 20.7082 25.0602 20.8169 24.7726C20.9157 24.5109 20.9297 24.2511 20.9297 24.057V21.6979C20.9297 21.6636 20.9301 21.6322 20.9309 21.6035C21.1335 21.6383 21.7064 21.8456 23.0493 23.0801C23.5 23.5104 23.8576 23.8821 24.1603 24.2021C24.2154 24.2604 24.2696 24.3179 24.3228 24.3744C24.5551 24.621 24.7689 24.8481 24.9642 25.0349C25.208 25.2682 25.4712 25.4874 25.7822 25.6428C26.109 25.8061 26.4495 25.88 26.825 25.88H29.5819C30.0665 25.88 30.6415 25.7697 31.0335 25.3356C31.4622 24.8607 31.4601 24.2471 31.3011 23.7283L31.2979 23.7179L31.2945 23.7077C31.1254 23.2048 30.7699 22.6641 30.357 22.131C29.9339 21.5847 29.3976 20.9804 28.8028 20.3417C28.4535 19.9488 28.0265 19.5497 27.6768 19.2227L27.6766 19.2226C27.2875 18.8589 27.045 18.6284 26.9532 18.5057L26.9432 18.4923L26.9327 18.4794C26.9113 18.4531 26.8943 18.4309 26.8809 18.4123C26.8851 18.4052 26.8897 18.3975 26.8947 18.3893C26.9153 18.3556 26.9394 18.3179 26.9692 18.2724L26.9941 18.2388C27.0194 18.2045 27.0563 18.1543 27.1033 18.0902C27.1972 17.9618 27.3313 17.7773 27.4933 17.5512C27.8168 17.0995 28.2528 16.48 28.7007 15.8107C29.1474 15.1431 29.6118 14.4173 29.9894 13.7549C30.3444 13.1322 30.6716 12.4832 30.7946 11.9758C30.904 11.6107 30.9714 11.0692 30.6286 10.6016C30.2751 10.1194 29.6942 10 29.1881 10H26.4312C25.9387 10 25.5126 10.1272 25.1664 10.3769C24.8278 10.6211 24.627 10.9383 24.5021 11.2164ZM14.9749 18.056C14.976 18.0564 14.9765 18.0566 14.9765 18.0566L14.9749 18.056Z" stroke-width="1.6"></path>
</svg>