<svg width="82" height="98" viewBox="0 0 82 98" fill="none" xmlns="http://www.w3.org/2000/svg">
<path d="M53.8923 59.0116C54.3676 59.9205 54.6052 61.3015 54.6052 63.1547V69.5286C54.5936 71.3818 54.3502 72.7451 53.875 73.6186C53.3997 74.4802 52.6637 74.9111 51.6668 74.9111C50.6352 74.9111 49.8818 74.4684 49.4065 73.5832C48.9313 72.6861 48.6937 71.2756 48.6937 69.3516V62.7651C48.7284 61.0418 48.9718 59.7552 49.4239 58.9053C49.8876 58.0555 50.6236 57.6306 51.632 57.6306C52.6637 57.6306 53.4171 58.0909 53.8923 59.0116Z" fill="#FF7B52"/>
<path fill-rule="evenodd" clip-rule="evenodd" d="M5.56228 97.0113C6.80996 97.5423 8.15978 97.7875 9.51361 97.7289H72.51C73.8489 97.7833 75.1834 97.5408 76.4184 97.0185C77.6534 96.4962 78.7587 95.707 79.6556 94.707C80.5525 93.707 81.2191 92.5208 81.6078 91.2327C81.9965 89.9446 82.0979 88.5864 81.9047 87.2545L73.8478 41.448C73.1879 39.4935 71.9024 37.8133 70.1919 36.6698C68.4814 35.5263 66.4421 34.9837 64.3922 35.1267H53.6293C56.7581 32.5198 59.0103 29.0073 60.079 25.0679C61.1477 21.1285 60.9809 16.9539 59.6013 13.1131C58.2218 9.2724 55.6965 5.95244 52.3698 3.60579C49.0432 1.25914 45.0769 0 41.0118 0C36.9467 0 32.9805 1.25914 29.6538 3.60579C26.3271 5.95244 23.8019 9.2724 22.4223 13.1131C21.0427 16.9539 20.8759 21.1285 21.9446 25.0679C23.0133 29.0073 25.2656 32.5198 28.3943 35.1267H17.6314C15.5759 34.9511 13.5217 35.4805 11.8044 36.6286C10.0871 37.7767 8.80795 39.4756 8.17585 41.448L0.118881 87.1018C-0.0991883 88.4451 -0.0165179 89.8204 0.360883 91.1276C0.738284 92.4348 1.40093 93.6411 2.30066 94.6589C3.20039 95.6766 4.31459 96.4802 5.56228 97.0113ZM35.0998 10.971C36.8498 9.79654 38.9072 9.16969 41.0118 9.16969C43.8341 9.16969 46.5407 10.2958 48.5363 12.3002C50.532 14.3046 51.6531 17.0232 51.6531 19.8579C51.6531 21.9718 51.029 24.0382 49.8597 25.7959C48.6904 27.5536 47.0285 28.9235 45.0841 29.7325C43.1396 30.5414 41 30.7531 38.9358 30.3407C36.8716 29.9283 34.9755 28.9103 33.4873 27.4156C31.9991 25.9208 30.9856 24.0163 30.575 21.943C30.1644 19.8697 30.3751 17.7207 31.1805 15.7677C31.986 13.8147 33.3499 12.1454 35.0998 10.971ZM30.3852 63.7743H27.6207V68.2184H30.4722C31.5965 68.2184 32.4775 68.4899 33.115 69.0329C33.7525 69.5758 34.0713 70.4965 34.0713 71.7949C34.0713 72.7038 33.7641 73.4533 33.1498 74.0435C32.5354 74.6219 31.7124 74.9111 30.6808 74.9111C29.7651 74.9111 28.9943 74.6219 28.3684 74.0435C27.7424 73.4651 27.4295 72.7805 27.4295 71.9897H21.5353C21.5353 73.4415 21.9004 74.7399 22.6307 75.8849C23.3609 77.018 24.4331 77.9092 25.8472 78.5584C27.273 79.1958 28.8146 79.5145 30.4722 79.5145C33.3004 79.5145 35.5839 78.824 37.3226 77.4429C39.0613 76.0619 39.9306 74.2206 39.9306 71.9188C39.9306 70.4316 39.5481 69.1863 38.7831 68.183C38.0181 67.1679 36.9633 66.4125 35.6187 65.9167C36.8937 65.3029 37.8616 64.5062 38.5223 63.5265C39.1946 62.535 39.5308 61.4844 39.5308 60.3749C39.5308 58.085 38.7252 56.2849 37.114 54.9747C35.5028 53.6645 33.2888 53.0094 30.4722 53.0094C28.8958 53.0094 27.4468 53.3104 26.1254 53.9124C24.8156 54.5026 23.7898 55.3288 23.048 56.3912C22.3061 57.4535 21.9352 58.6634 21.9352 60.0208H27.7946C27.7946 59.3362 28.0786 58.7637 28.6465 58.3034C29.2261 57.843 29.9042 57.6128 30.6808 57.6128C31.6313 57.6128 32.3673 57.8843 32.889 58.4273C33.4106 58.9585 33.6714 59.649 33.6714 60.4988C33.6714 62.6825 32.576 63.7743 30.3852 63.7743ZM58.1521 76.6816C59.6938 74.793 60.4646 72.1077 60.4646 68.6256V63.9337C60.4646 60.4634 59.6938 57.7781 58.1521 55.8777C56.6105 53.9773 54.4371 53.0271 51.632 53.0271C48.827 53.0271 46.6536 53.9714 45.1119 55.86C43.5819 57.7486 42.8169 60.4339 42.8169 63.916V68.6256C42.8169 72.0841 43.5877 74.7635 45.1293 76.6639C46.671 78.5643 48.8501 79.5145 51.6668 79.5145C54.4603 79.5145 56.6221 78.5702 58.1521 76.6816Z" fill="#FF7B52"/>
</svg>
