<svg width="67" height="73" viewBox="0 0 67 73" fill="none" xmlns="http://www.w3.org/2000/svg">
<path d="M22.6237 0.272367C23.5617 0.824134 23.8749 2.03183 23.3231 2.96984L20.3787 7.9753C34.3864 1.99902 51.1608 6.20909 60.5374 19.0288C71.4592 33.9611 68.208 54.9201 53.2756 65.842C38.3432 76.7638 17.3843 73.5126 6.46243 58.5802C1.0142 51.1314 -0.906993 42.1788 0.389111 33.7271C0.554073 32.6514 1.55981 31.9132 2.63549 32.0781C3.71117 32.2431 4.44945 33.2488 4.28449 34.3245C3.14001 41.7874 4.83542 49.6803 9.64331 56.2537C19.2802 69.4293 37.7734 72.298 50.9491 62.6611C64.1247 53.0242 66.9934 34.5309 57.3565 21.3553C48.8689 9.75101 33.5114 6.14182 20.9675 12.0299L28.4853 13.1582C29.5615 13.3198 30.3029 14.3231 30.1414 15.3993C29.9799 16.4755 28.9765 17.217 27.9003 17.0555L14.8507 15.0969C14.5788 15.0685 14.3084 14.9828 14.0574 14.8351C13.6127 14.5735 13.3084 14.1645 13.1702 13.7066C13.1198 13.5405 13.0909 13.3662 13.0864 13.1873C13.0815 13.0038 13.1022 12.8185 13.15 12.6368C13.2026 12.4344 13.2858 12.2463 13.3938 12.0769L19.9263 0.971711C20.478 0.0337068 21.6857 -0.2794 22.6237 0.272367Z" fill="#333333"/>
<path fill-rule="evenodd" clip-rule="evenodd" d="M29.94 48.9985H36.3863V45.9582H29.94V43.3219H36.6557C39.7602 43.3091 42.1527 42.565 43.8333 41.0897C45.5266 39.6016 46.3733 37.4913 46.3733 34.7589C46.3733 32.1547 45.4945 30.0893 43.737 28.5627C41.9795 27.0361 39.5998 26.2728 36.598 26.2728H26.2646V40.3008H22.2813V43.3219H26.2646V45.9582H22.2813V48.9985H26.2646V54.2903H29.94V48.9985ZM36.598 40.3008H29.94V29.3132H36.7134C38.5479 29.326 40.0039 29.8391 41.0815 30.8526C42.1591 31.8532 42.6979 33.1681 42.6979 34.7973C42.6979 36.5933 42.1784 37.9596 41.1393 38.8961C40.1002 39.8325 38.5864 40.3008 36.598 40.3008Z" fill="#333333"/>
</svg>
