<svg width="92" height="92" viewBox="0 0 92 92" fill="none" xmlns="http://www.w3.org/2000/svg">
<path d="M69.231 62.9817C67.4652 63.5959 64.5477 64.2869 61.3232 64.9011C60.1716 66.7437 58.022 68.2024 54.7975 68.7398C54.0297 68.8933 53.1852 68.8933 52.2639 68.8933C50.0375 68.8933 47.3504 68.5862 44.433 68.2791C44.2027 68.2791 43.9724 68.2024 43.742 68.2024C42.9743 68.1256 42.4369 67.4346 42.4369 66.6669C42.5136 65.8224 43.2046 65.2082 44.0491 65.285C44.2794 65.285 44.5098 65.3617 44.7401 65.3617C48.502 65.8224 52.1104 66.2062 54.3368 65.8224C58.4826 65.1314 59.7878 62.6746 59.5575 60.525C59.4039 58.7592 58.1755 57.0701 56.1026 57.1469C53.7226 57.2237 51.0356 57.0701 48.2717 56.8398C48.502 49.5463 51.4194 43.5579 54.8742 39.0283C59.1736 41.4083 64.6245 42.0225 68.3864 39.4889C74.6819 35.2664 75.9103 20.2187 75.4496 11.3897C75.3729 9.8542 73.4535 9.08646 72.3787 10.2381C63.3194 19.4509 49.1162 19.1438 48.1949 29.0477C47.9646 31.1973 48.8091 33.2702 50.191 35.1128C56.9471 28.4335 64.0103 26.0535 64.471 25.9767C64.5478 25.9767 64.6245 25.8999 64.7013 25.8999C62.8587 26.9748 51.9568 33.5773 47.1969 45.7844C44.7401 41.9457 40.9014 37.2625 37.6769 34.6522C35.5272 32.656 33.6846 31.4277 33.1472 31.1206C33.224 31.1206 33.224 31.1206 33.3008 31.1206C33.6079 31.1973 39.0588 32.5793 43.8188 37.5696C44.8169 36.3412 44.9704 35.3431 44.8936 33.8077C44.433 26.6677 34.1453 26.5909 27.6963 19.758C26.9285 18.9135 25.5466 19.4509 25.4698 20.5258C25.0092 26.898 25.6234 37.7999 30.0763 41.0244C32.6098 42.7902 36.4485 42.5599 39.5195 41.1779C42.1298 44.2489 44.7401 47.7805 45.8149 50.0837C45.3543 52.0798 45.0472 54.2295 44.9704 56.5327C41.5924 56.2256 38.2911 55.9953 35.8343 56.3024C34.2988 56.5327 31.6118 57.5308 28.7711 58.6824C28.1569 58.9127 27.466 59.2198 26.8518 59.5269V78.0294C32.533 80.0255 39.5195 82.252 43.5885 82.5591C51.8801 83.25 68.1561 73.8069 72.7626 70.8127C77.5225 67.7417 74.3748 61.2159 69.231 62.9817Z" fill="#61C46B"/>
<path d="M22.0919 56.1489H12.5719C11.4971 56.1489 10.6526 56.9934 10.6526 58.0682V79.1043C10.6526 80.1791 11.4971 81.0236 12.5719 81.0236H22.1687C23.2435 81.0236 24.088 80.1791 24.088 79.1043V58.0682C24.0112 57.0702 23.1667 56.1489 22.0919 56.1489Z" fill="#61C46B"/>
</svg>