<svg width="39" height="30" viewBox="0 0 39 30" fill="none" xmlns="http://www.w3.org/2000/svg">
<path d="M6.96002 29.9342V27.9432C6.96002 27.1816 6.49885 26.6829 5.70718 26.6829C5.31134 26.6829 4.88091 26.8143 4.585 27.2473C4.35441 26.8839 4.02391 26.6829 3.52815 26.6829C3.19765 26.6829 2.86714 26.7834 2.60582 27.1468V26.7486H1.91406V29.9342H2.60582V28.1751C2.60582 27.6107 2.90173 27.344 3.3629 27.344C3.82407 27.344 4.05465 27.6416 4.05465 28.1751V29.9342H4.74641V28.1751C4.74641 27.6107 5.07691 27.344 5.50349 27.344C5.96466 27.344 6.19525 27.6416 6.19525 28.1751V29.9342H6.96002ZM17.221 26.7486H16.0988V25.786H15.4071V26.7486H14.7807V27.3787H15.4071V28.8401C15.4071 29.5708 15.703 29.9999 16.4947 29.9999C16.7906 29.9999 17.1211 29.8994 17.3517 29.7679L17.1518 29.1687C16.952 29.3001 16.7214 29.3349 16.5562 29.3349C16.2257 29.3349 16.095 29.1339 16.095 28.8053V27.3787H17.2172V26.7486H17.221ZM23.0932 26.679C22.6974 26.679 22.4322 26.88 22.267 27.1429V26.7447H21.5752V29.9303H22.267V28.1365C22.267 27.6068 22.4976 27.3053 22.928 27.3053C23.0587 27.3053 23.2239 27.3401 23.3584 27.371L23.5583 26.7061C23.4199 26.679 23.2239 26.679 23.0932 26.679ZM14.2196 27.0115C13.8891 26.7795 13.4279 26.679 12.9322 26.679C12.1405 26.679 11.614 27.0772 11.614 27.7074C11.614 28.237 12.0098 28.5385 12.7016 28.6352L13.0321 28.67C13.3933 28.7357 13.5932 28.8362 13.5932 29.0025C13.5932 29.2344 13.328 29.4007 12.8668 29.4007C12.4057 29.4007 12.0406 29.2344 11.81 29.0682L11.4795 29.5978C11.8407 29.8646 12.3365 29.996 12.8322 29.996C13.7546 29.996 14.2849 29.563 14.2849 28.9677C14.2849 28.4032 13.8545 28.1056 13.1973 28.005L12.8668 27.9702C12.5709 27.9354 12.3403 27.8697 12.3403 27.6726C12.3403 27.4406 12.5709 27.3092 12.936 27.3092C13.3318 27.3092 13.7277 27.4754 13.9275 27.5759L14.2196 27.0115ZM32.6241 26.679C32.2282 26.679 31.9631 26.88 31.7978 27.1429V26.7447H31.106V29.9303H31.7978V28.1365C31.7978 27.6068 32.0284 27.3053 32.4588 27.3053C32.5895 27.3053 32.7547 27.3401 32.8892 27.371L33.0891 26.7138C32.9546 26.679 32.7586 26.679 32.6241 26.679ZM23.785 28.3414C23.785 29.304 24.446 29.9999 25.4683 29.9999C25.9294 29.9999 26.2599 29.8994 26.5904 29.6365L26.2599 29.072C25.9948 29.2731 25.7334 29.3697 25.4337 29.3697C24.8726 29.3697 24.4767 28.9715 24.4767 28.3414C24.4767 27.7421 24.8726 27.344 25.4337 27.313C25.7296 27.313 25.9948 27.4135 26.2599 27.6107L26.5904 27.0463C26.2599 26.7795 25.9294 26.6829 25.4683 26.6829C24.446 26.679 23.785 27.3787 23.785 28.3414ZM30.1837 28.3414V26.7486H29.492V27.1468C29.2614 26.8491 28.9309 26.6829 28.5004 26.6829C27.6088 26.6829 26.9171 27.3787 26.9171 28.3414C26.9171 29.304 27.6088 29.9999 28.5004 29.9999C28.9616 29.9999 29.2921 29.8336 29.492 29.536V29.9342H30.1837V28.3414ZM27.6434 28.3414C27.6434 27.7769 28.0047 27.313 28.6004 27.313C29.1615 27.313 29.5573 27.746 29.5573 28.3414C29.5573 28.9058 29.1615 29.3697 28.6004 29.3697C28.0085 29.3349 27.6434 28.9019 27.6434 28.3414ZM19.3655 26.679C18.4431 26.679 17.7821 27.344 17.7821 28.3375C17.7821 29.3349 18.4431 29.996 19.4 29.996C19.8612 29.996 20.3224 29.8646 20.6875 29.563L20.357 29.0643C20.0918 29.2653 19.7613 29.3968 19.4346 29.3968C19.0042 29.3968 18.5776 29.1958 18.4777 28.6352H20.8181C20.8181 28.5347 20.8181 28.469 20.8181 28.3684C20.8489 27.344 20.2532 26.679 19.3655 26.679ZM19.3655 27.2782C19.7959 27.2782 20.0918 27.545 20.1571 28.0398H18.5085C18.5738 27.6107 18.8697 27.2782 19.3655 27.2782ZM36.5517 28.3414V25.4883H35.8599V27.1468C35.6293 26.8491 35.2988 26.6829 34.8684 26.6829C33.9768 26.6829 33.2851 27.3787 33.2851 28.3414C33.2851 29.304 33.9768 29.9999 34.8684 29.9999C35.3296 29.9999 35.6601 29.8336 35.8599 29.536V29.9342H36.5517V28.3414ZM34.0114 28.3414C34.0114 27.7769 34.3727 27.313 34.9683 27.313C35.5294 27.313 35.9253 27.746 35.9253 28.3414C35.9253 28.9058 35.5294 29.3697 34.9683 29.3697C34.3727 29.3349 34.0114 28.9019 34.0114 28.3414ZM10.8531 28.3414V26.7486H10.1613V27.1468C9.93071 26.8491 9.60021 26.6829 9.16978 26.6829C8.27819 26.6829 7.58644 27.3787 7.58644 28.3414C7.58644 29.304 8.27819 29.9999 9.16978 29.9999C9.63095 29.9999 9.96146 29.8336 10.1613 29.536V29.9342H10.8531V28.3414ZM8.28203 28.3414C8.28203 27.7769 8.64328 27.313 9.23896 27.313C9.80005 27.313 10.1959 27.746 10.1959 28.3414C10.1959 28.9058 9.80005 29.3697 9.23896 29.3697C8.64328 29.3349 8.28203 28.9019 8.28203 28.3414Z" fill="black"></path>
<path d="M24.38 2.55566H13.9883V21.3366H24.38V2.55566Z" fill="#FF5A00"></path>
<path d="M14.6805 11.9459C14.6805 8.13015 16.4637 4.74356 19.2 2.55541C17.1862 0.962629 14.646 0 11.8751 0C5.31113 0 0 5.34278 0 11.9459C0 18.549 5.31113 23.8918 11.8751 23.8918C14.646 23.8918 17.1862 22.9291 19.2 21.3363C16.4599 19.1791 14.6805 15.7616 14.6805 11.9459Z" fill="#EB001B"></path>
<path d="M38.3992 11.9459C38.3992 18.549 33.0881 23.8918 26.5241 23.8918C23.7533 23.8918 21.213 22.9291 19.1992 21.3363C21.9701 19.1443 23.7187 15.7616 23.7187 11.9459C23.7187 8.13015 21.9355 4.74356 19.1992 2.55541C21.2091 0.962629 23.7494 0 26.5203 0C33.0881 0 38.3992 5.37758 38.3992 11.9459Z" fill="#F79E1B"></path>
</svg>