<svg width="59" height="16" viewBox="0 0 59 16" fill="none" xmlns="http://www.w3.org/2000/svg">
<path fill-rule="evenodd" clip-rule="evenodd" d="M5.42415 0.00273032C5.94818 -0.000404622 7.50557 -0.140671 8.16525 2.08575C8.60962 3.58549 9.31747 6.04213 10.2888 9.45568H10.6844C11.7261 5.85688 12.4416 3.40023 12.8311 2.08575C13.4977 -0.163863 15.164 0.00277441 15.8306 0.00277441L20.9732 0.00278082V16H15.7317V6.57256H15.3802L12.4584 16H8.51482L5.59296 6.56557H5.24148V16H0V0.00278082L5.42415 0.00273032ZM28.4998 0.00278082V9.43721H28.918L32.4722 1.67935C33.1621 0.135509 34.6326 0.00278082 34.6326 0.00278082H39.7047V16H34.3538V6.56557H33.9357L30.4512 14.3234C29.7612 15.8603 28.2211 16 28.2211 16H23.1489V0.00278082H28.4998ZM58.2 7.60477C57.4536 9.71989 55.1096 11.2347 52.5145 11.2347H46.903V16H41.8145V7.60477H58.2Z" fill="#0F754E"></path>
<path fill-rule="evenodd" clip-rule="evenodd" d="M52.7591 0.00292969H41.5469C41.8137 3.56445 44.8808 6.61335 48.0559 6.61335H58.5528C59.1585 3.6533 57.0732 0.00292969 52.7591 0.00292969Z" fill="url(#paint0_linear_1316_5)"></path>
<defs>
<linearGradient id="paint0_linear_1316_5" x1="58.6557" y1="4.16117" x2="41.5469" y2="4.16117" gradientUnits="userSpaceOnUse">
<stop stop-color="#1F5CD7"></stop>
<stop offset="1" stop-color="#02AEFF"></stop>
</linearGradient>
</defs>
</svg>