<svg width="50" height="16" viewBox="0 0 50 16" fill="none" xmlns="http://www.w3.org/2000/svg">
<path d="M21.4228 15.7687H17.418L19.9229 0.280273H23.9275L21.4228 15.7687Z" fill="#00579F"></path>
<path d="M35.9411 0.659404C35.1512 0.346018 33.8983 0 32.3491 0C28.3942 0 25.6092 2.10895 25.5921 5.12412C25.5593 7.34871 27.5861 8.58429 29.102 9.32604C30.6514 10.084 31.1781 10.5787 31.1781 11.2543C31.1624 12.2919 29.9261 12.7702 28.7731 12.7702C27.1742 12.7702 26.3174 12.5236 25.0155 11.9464L24.4882 11.6989L23.9277 15.1757C24.867 15.6036 26.5975 15.9834 28.3942 16C32.5964 16 35.3321 13.9237 35.3645 10.7105C35.3805 8.94739 34.3102 7.59639 32.0029 6.49242C30.6022 5.78374 29.7443 5.30589 29.7443 4.58079C29.7608 3.9216 30.4699 3.24643 32.0511 3.24643C33.353 3.21336 34.3096 3.52631 35.0343 3.83948L35.3965 4.00394L35.9411 0.659404V0.659404Z" fill="#00579F"></path>
<path d="M41.2644 10.2817C41.5943 9.39191 42.8633 5.94816 42.8633 5.94816C42.8467 5.98123 43.1925 5.04195 43.3903 4.46533L43.6701 5.7999C43.6701 5.7999 44.4285 9.50732 44.5932 10.2817C43.9673 10.2817 42.0555 10.2817 41.2644 10.2817ZM46.2079 0.280273H43.1102C42.1549 0.280273 41.4291 0.560153 41.017 1.56535L35.0684 15.7685H39.2705C39.2705 15.7685 39.9623 13.8568 40.111 13.4451C40.572 13.4451 44.6598 13.4451 45.2528 13.4451C45.3678 13.9889 45.7307 15.7685 45.7307 15.7685H49.4387L46.2079 0.280273V0.280273Z" fill="#00579F"></path>
<path d="M14.0731 0.280273L10.1511 10.8419L9.72248 8.69989C8.99737 6.22827 6.7233 3.54291 4.18555 2.20768L7.77799 15.7523H12.013L18.3079 0.280273H14.0731V0.280273Z" fill="#00579F"></path>
<path d="M6.50928 0.280273H0.0659182L0 0.593222C5.02623 1.87852 8.355 4.97669 9.72264 8.70054L8.32193 1.58222C8.09132 0.593003 7.38265 0.312904 6.50928 0.280273Z" fill="#FAA61A"></path>
</svg>