<svg width="59" height="30" viewBox="0 0 59 30" fill="none" xmlns="http://www.w3.org/2000/svg">
<path d="M0 6.53027L3.64816 13.024V16.9849L0.00426774 23.4658L0 6.53027Z" fill="#5B57A2"></path>
<path d="M14.0078 10.6604L17.4263 8.57388L24.4223 8.56738L14.0078 14.9208V10.6604Z" fill="#D90751"></path>
<path d="M13.9889 6.49168L14.0083 15.0891L10.3516 12.8516V0L13.9892 6.49168H13.9889Z" fill="#FAB718"></path>
<path d="M24.4228 8.56766L17.4265 8.57416L13.9889 6.49168L10.3516 0L24.4225 8.56766H24.4228Z" fill="#ED6F26"></path>
<path d="M14.0083 23.5019V19.3307L10.3516 17.1357L10.3536 30.0001L14.0083 23.5019Z" fill="#63B22F"></path>
<path d="M17.4174 21.4344L3.64791 13.024L0 6.53027L24.4072 21.4259L17.4171 21.4344H17.4174Z" fill="#1487C9"></path>
<path d="M10.3516 29.9999L14.0058 23.5018L17.4157 21.4343L24.4055 21.4258L10.3516 29.9999Z" fill="#017F36"></path>
<path d="M0.00390625 23.4653L10.3803 17.1354L6.89178 15.0039L3.6478 16.9844L0.00390625 23.4653Z" fill="#984995"></path>
<path fill-rule="evenodd" clip-rule="evenodd" d="M38.6897 16.1598C41.044 16.1598 42.7923 14.7223 42.7923 12.5431C42.7923 10.4338 41.5024 9.06436 39.3467 9.06436C38.3518 9.06436 37.5309 9.4131 36.9126 10.0148C37.0602 8.77111 38.1163 7.86312 39.2792 7.86312C39.5475 7.86312 41.5679 7.85887 41.5679 7.85887L42.7104 5.68164C42.7104 5.68164 40.1739 5.73914 38.9947 5.73914C36.3005 5.78589 34.4807 8.22461 34.4807 11.1866C34.4807 14.6373 36.2556 16.1598 38.6897 16.1598ZM38.704 10.9928C39.5782 10.9928 40.1842 11.5648 40.1842 12.5428C40.1842 13.4231 39.6457 14.1483 38.704 14.1503C37.8033 14.1503 37.1973 13.4783 37.1973 12.5578C37.1973 11.5796 37.8033 10.9928 38.704 10.9928Z" fill="black"></path>
<path d="M51.8821 8.56321V15.8976H49.2522V10.7527H46.7199V15.8976H44.09V8.56271L51.8821 8.56321Z" fill="black"></path>
<path d="M30.7904 13.8657C31.718 13.7982 32.3391 13.4417 32.3391 13.4417L33.3124 15.2347C32.689 15.6334 31.6663 15.8927 30.9249 15.9202C28.2727 15.9687 26.4277 14.3615 26.4277 12.02C26.4277 9.70801 28.3906 8.06252 30.9249 8.06252C31.9291 8.06252 32.7924 8.33077 33.4406 8.82001C33.0867 9.44451 32.4033 10.6932 32.4033 10.6932C32.4033 10.6932 31.4694 10.206 30.7635 10.206C29.6122 10.206 28.7737 10.8722 28.7737 12.0347C28.7737 13.2265 29.7239 13.8972 30.7904 13.8657Z" fill="black"></path>
<path d="M28.7754 20.8334C28.695 20.9354 28.5893 21.0124 28.4626 21.0644C28.3325 21.1171 28.1933 21.144 28.0529 21.1434C27.9132 21.1453 27.7743 21.1221 27.6429 21.0749C27.5249 21.0322 27.417 20.9656 27.3261 20.8794C27.2363 20.793 27.1658 20.6887 27.1192 20.5734C27.0688 20.447 27.0436 20.3121 27.0452 20.1761C27.0452 20.0411 27.0685 19.9162 27.117 19.7977C27.1634 19.6789 27.2309 19.5772 27.3155 19.4917C27.4001 19.4044 27.5016 19.3379 27.6155 19.2859C27.7318 19.2359 27.8586 19.2089 27.9979 19.2089C28.148 19.2089 28.2873 19.2277 28.4141 19.2649C28.5409 19.3024 28.6486 19.3649 28.7372 19.4524L28.5831 19.7124C28.5085 19.6451 28.4207 19.594 28.3252 19.5624C28.2345 19.5333 28.1397 19.5186 28.0443 19.5189C27.96 19.5189 27.8796 19.5354 27.8016 19.5667C27.7246 19.5975 27.6543 19.6427 27.5945 19.6999C27.5333 19.7587 27.485 19.8295 27.4529 19.9079C27.417 19.9889 27.4001 20.0784 27.4001 20.1781C27.4001 20.2801 27.419 20.3716 27.4549 20.4506C27.491 20.5319 27.5395 20.6006 27.6007 20.6586C27.662 20.7171 27.7338 20.7606 27.8161 20.7899C27.8987 20.8211 27.9853 20.8356 28.0782 20.8356C28.1922 20.8356 28.2959 20.8126 28.3845 20.7689C28.4723 20.7267 28.5512 20.6681 28.617 20.5964L28.7754 20.8334Z" fill="black"></path>
<path d="M29.2104 21.0996V19.2484H29.5443V20.6276L30.6301 19.2484H30.964V21.0999H30.6301V19.7207L29.5443 21.0999L29.2104 21.0996Z" fill="black"></path>
<path d="M33.1757 20.8334C33.0935 20.9362 32.9858 21.0159 32.8631 21.0644C32.7329 21.1171 32.5937 21.1439 32.4532 21.1434C32.3136 21.1453 32.1748 21.122 32.0434 21.0749C31.9253 21.0322 31.8174 20.9656 31.7264 20.8794C31.6366 20.793 31.5661 20.6887 31.5195 20.5734C31.4691 20.447 31.4439 20.3121 31.4455 20.1761C31.4455 20.0411 31.4688 19.9162 31.5173 19.7977C31.564 19.6789 31.6315 19.5772 31.7158 19.4917C31.8004 19.4044 31.9019 19.3379 32.0158 19.2859C32.1362 19.2331 32.2666 19.2068 32.3982 19.2089C32.5483 19.2089 32.6876 19.2277 32.8144 19.2649C32.9412 19.3024 33.0489 19.3649 33.1377 19.4524L32.9834 19.7124C32.9089 19.6451 32.8212 19.594 32.7258 19.5624C32.635 19.5333 32.5402 19.5186 32.4449 19.5189C32.2771 19.5194 32.1159 19.5843 31.9947 19.6999C31.9341 19.7591 31.8859 19.8299 31.8532 19.9079C31.8173 19.9889 31.8004 20.0784 31.8004 20.1781C31.8004 20.2801 31.8195 20.3716 31.8554 20.4506C31.8913 20.5319 31.9398 20.6006 32.001 20.6586C32.0623 20.7171 32.1343 20.7606 32.2167 20.7899C32.299 20.8189 32.3856 20.8356 32.4785 20.8356C32.5927 20.8356 32.6942 20.8126 32.7848 20.7689C32.8726 20.7267 32.9515 20.6681 33.0172 20.5964L33.1757 20.8334Z" fill="black"></path>
<path d="M33.3489 19.2484H35.06V19.5772H34.3714V21.0996H34.0375V19.5772H33.3489V19.2484Z" fill="black"></path>
<path fill-rule="evenodd" clip-rule="evenodd" d="M36.9456 20.8979C36.8527 20.9809 36.745 21.0414 36.6182 21.0809C36.496 21.1199 36.3685 21.1404 36.2402 21.1411C36.0985 21.143 35.9575 21.1198 35.8239 21.0726C35.6992 21.0269 35.5937 20.9621 35.5071 20.8771C35.4186 20.7906 35.3495 20.6864 35.3043 20.5714C35.2578 20.4527 35.2325 20.3197 35.2325 20.1739C35.2312 20.0448 35.2534 19.9166 35.298 19.7954C35.3386 19.6816 35.4025 19.5775 35.4858 19.4897C35.5715 19.4014 35.6744 19.3313 35.788 19.2837C35.9083 19.2337 36.0456 19.2067 36.202 19.2067C36.3183 19.2061 36.4337 19.2273 36.5422 19.2692C36.6458 19.3075 36.7406 19.3662 36.8211 19.4417C36.9004 19.5179 36.9636 19.6092 37.0069 19.7102C37.0533 19.8142 37.0766 19.9284 37.0766 20.0554C37.0766 20.1407 37.0704 20.2134 37.0556 20.2779H35.6106C35.6254 20.4529 35.6909 20.5899 35.8111 20.6879C35.9316 20.7856 36.0838 20.8334 36.2675 20.8334C36.39 20.8334 36.502 20.8149 36.6014 20.7774C36.7006 20.7399 36.7829 20.6941 36.8442 20.6399L36.9456 20.8979ZM36.1872 19.5167C36.014 19.5167 35.8767 19.5624 35.7732 19.6559C35.6709 19.7476 35.6056 19.8735 35.5895 20.0097H36.7302C36.7217 19.8559 36.6712 19.7352 36.5761 19.6479C36.4809 19.5604 36.3499 19.5167 36.1872 19.5167Z" fill="black"></path>
<path d="M37.5318 19.2488H37.8361L38.5586 20.1663L39.243 19.2488H39.5387V21.1003H39.2051V19.7503L38.5543 20.6093H38.5415L37.8657 19.7501V21.1H37.5318V19.2488Z" fill="black"></path>
<path fill-rule="evenodd" clip-rule="evenodd" d="M40.1587 19.377C40.2477 19.3221 40.3445 19.2808 40.4459 19.2545C40.5536 19.2252 40.6655 19.2087 40.784 19.2087C41.0501 19.2087 41.2382 19.2752 41.3438 19.4062C41.4515 19.5375 41.5043 19.7245 41.5043 19.966V21.1017H41.1917V20.8625C41.1367 20.9332 41.0607 20.9955 40.9655 21.0497C40.8706 21.1037 40.7459 21.1307 40.5895 21.1307C40.4162 21.1307 40.2769 21.081 40.1712 20.9812C40.0658 20.8812 40.0128 20.7397 40.0128 20.5587C40.0118 20.4717 40.0306 20.3857 40.0678 20.307C40.1026 20.2351 40.1531 20.1719 40.2157 20.122C40.2769 20.072 40.353 20.0345 40.4416 20.0095C40.5305 19.9847 40.6233 19.97 40.7228 19.97C40.8036 19.9709 40.8842 19.9793 40.9635 19.995C41.0455 20.0093 41.1234 20.0413 41.1917 20.0887C41.1917 20.0032 41.1874 19.9242 41.1769 19.8515C41.1664 19.7787 41.1473 19.7165 41.1177 19.6665C41.088 19.6165 41.0459 19.5747 40.9889 19.5477C40.9319 19.5187 40.8578 19.504 40.7649 19.504C40.6487 19.504 40.5515 19.5165 40.4755 19.5437C40.3994 19.5707 40.3234 19.602 40.2473 19.6395L40.1587 19.377ZM40.7059 20.8332C40.8285 20.8332 40.9279 20.8085 41.0039 20.7545C41.0725 20.7092 41.1349 20.6551 41.1897 20.594V20.359C41.0735 20.2757 40.9321 20.2362 40.7672 20.2362C40.7165 20.2362 40.668 20.2425 40.6193 20.255C40.5734 20.266 40.5298 20.2851 40.4905 20.3112C40.4546 20.3362 40.423 20.3675 40.3997 20.407C40.3763 20.4465 40.3658 20.4902 40.3658 20.542C40.3658 20.6295 40.3954 20.7002 40.4546 20.7542C40.5136 20.8062 40.5982 20.8332 40.7059 20.8332Z" fill="black"></path>
<path fill-rule="evenodd" clip-rule="evenodd" d="M44.6416 18.437C44.5823 18.514 44.519 18.566 44.4515 18.597C44.3837 18.628 44.3099 18.6492 44.2296 18.6657C44.1693 18.6782 44.1063 18.6897 44.0403 18.7017L43.974 18.7137C43.8739 18.7322 43.7765 18.7636 43.6846 18.8072C43.6009 18.8429 43.526 18.8961 43.4649 18.9632C43.4079 19.0297 43.3615 19.1027 43.3256 19.1837C43.2894 19.2647 43.2621 19.3502 43.243 19.4397C43.2242 19.5292 43.2136 19.6165 43.2071 19.7017H43.2156C43.2452 19.6352 43.2874 19.577 43.3381 19.5247C43.39 19.4719 43.449 19.4264 43.5134 19.3897C43.5797 19.3511 43.6507 19.321 43.7247 19.3002C43.8008 19.2795 43.8789 19.269 43.9592 19.269C44.0835 19.2675 44.2068 19.2901 44.3225 19.3355C44.4275 19.377 44.522 19.441 44.5994 19.523C44.6766 19.6063 44.7356 19.7047 44.7726 19.812C44.8128 19.9245 44.8338 20.0512 44.8338 20.1905C44.8338 20.3195 44.8105 20.4422 44.7621 20.5567C44.7156 20.671 44.6478 20.773 44.5635 20.8585C44.4766 20.9463 44.3732 21.0162 44.2592 21.0642C44.141 21.1142 44.0099 21.1412 43.8683 21.1412C43.7142 21.1412 43.5769 21.1142 43.4544 21.0602C43.3319 21.0062 43.2282 20.9312 43.1416 20.8312C43.055 20.7335 42.9897 20.613 42.943 20.4692C42.8965 20.3257 42.8735 20.1657 42.8735 19.9887C42.8735 19.8515 42.8817 19.7082 42.8988 19.5582C42.9154 19.4114 42.9486 19.267 42.998 19.1277C43.0467 18.9902 43.1185 18.8655 43.2093 18.7552C43.3002 18.645 43.4205 18.5577 43.5706 18.4932C43.6652 18.4512 43.7645 18.4205 43.8663 18.4017C43.9123 18.3941 43.956 18.3865 43.9974 18.3793L44.0438 18.3712L44.1071 18.36C44.1735 18.3485 44.2386 18.3304 44.3014 18.306C44.3606 18.283 44.4134 18.2395 44.4598 18.177L44.6416 18.437ZM43.2304 20.0512C43.2285 20.1612 43.2442 20.2707 43.2769 20.3757C43.3048 20.4645 43.3484 20.5477 43.4057 20.6212C43.4603 20.6872 43.5289 20.7405 43.6065 20.7772C43.6846 20.8147 43.7692 20.8335 43.8621 20.8335C43.9549 20.8335 44.0375 20.8167 44.1136 20.7835C44.1866 20.7526 44.2527 20.7074 44.3079 20.6505C44.363 20.5937 44.4061 20.5264 44.4347 20.4527C44.4641 20.378 44.4811 20.2967 44.4811 20.2072C44.4811 20.0262 44.4304 19.8765 44.3267 19.756C44.2233 19.6372 44.0754 19.577 43.8789 19.577C43.7213 19.5757 43.5679 19.6277 43.4438 19.7245C43.3888 19.7685 43.3424 19.8182 43.3065 19.8745C43.2704 19.9282 43.2446 19.9881 43.2304 20.0512Z" fill="black"></path>
<path d="M47.0604 19.2482H47.3942V21.0997H47.0604V19.2482Z" fill="black"></path>
<path fill-rule="evenodd" clip-rule="evenodd" d="M45.6492 19.2482H45.3133V21.1017H45.9196C46.0675 21.1017 46.19 21.081 46.2914 21.0437C46.3928 21.0062 46.4732 20.9562 46.5322 20.8937C46.5914 20.8312 46.6358 20.7627 46.6612 20.6837C46.6886 20.6047 46.7014 20.5255 46.7014 20.4422C46.7014 20.359 46.6886 20.28 46.6655 20.203C46.6421 20.1262 46.602 20.0575 46.545 19.9992C46.488 19.941 46.4119 19.8932 46.3168 19.8577C46.2216 19.8225 46.1034 19.8037 45.9578 19.8037H45.6492V19.2482ZM45.6492 20.7917V20.1092H45.8965C46.0569 20.1092 46.1732 20.1385 46.243 20.1967C46.3105 20.2552 46.3464 20.3402 46.3464 20.4527C46.3464 20.563 46.3127 20.646 46.245 20.7042C46.1774 20.7627 46.0592 20.7917 45.8922 20.7917H45.6492Z" fill="black"></path>
<path d="M49.6031 20.8334C49.5227 20.9354 49.4171 21.0124 49.2903 21.0644C49.1602 21.1171 49.021 21.1439 48.8806 21.1434C48.7409 21.1453 48.602 21.1221 48.4706 21.0749C48.3526 21.0323 48.2447 20.9657 48.1538 20.8794C48.064 20.7929 47.9935 20.6887 47.9467 20.5734C47.8965 20.447 47.8714 20.3121 47.8729 20.1762C47.8729 20.0412 47.896 19.9162 47.9447 19.7977C47.9911 19.6789 48.0587 19.5772 48.1433 19.4917C48.2279 19.4044 48.329 19.3379 48.4433 19.2859C48.5636 19.2331 48.6941 19.2068 48.8256 19.2089C48.9755 19.2089 49.115 19.2277 49.2418 19.2649C49.3686 19.3024 49.4763 19.3649 49.5649 19.4524L49.4108 19.7124C49.3362 19.6451 49.2484 19.594 49.153 19.5624C49.0622 19.5333 48.9674 19.5186 48.872 19.5189C48.7877 19.5189 48.7074 19.5354 48.629 19.5667C48.5522 19.5975 48.482 19.6428 48.4222 19.6999C48.3614 19.7591 48.3133 19.8298 48.2806 19.9079C48.2447 19.9889 48.2279 20.0784 48.2279 20.1782C48.2279 20.2802 48.2467 20.3717 48.2826 20.4506C48.3185 20.5319 48.3672 20.6006 48.4284 20.6586C48.4897 20.7171 48.5615 20.7606 48.6438 20.7899C48.7264 20.8189 48.813 20.8356 48.9059 20.8356C49.0199 20.8356 49.1213 20.8126 49.2122 20.7689C49.3 20.7267 49.3789 20.6681 49.4447 20.5964L49.6031 20.8334Z" fill="black"></path>
<path d="M49.7763 19.2484H51.4874V19.5772H50.7985V21.0996H50.4649V19.5772H49.7763V19.2484Z" fill="black"></path>
<path fill-rule="evenodd" clip-rule="evenodd" d="M51.85 19.2485H52.1839V19.4668C52.2472 19.3918 52.338 19.3318 52.4543 19.2818C52.5705 19.2318 52.693 19.2068 52.8238 19.2068C52.9479 19.2046 53.071 19.2287 53.1851 19.2775C53.2894 19.3208 53.3826 19.387 53.4577 19.471C53.5342 19.5572 53.5931 19.6575 53.6309 19.7663C53.6711 19.8808 53.6922 20.0075 53.6922 20.145C53.6922 20.2843 53.6688 20.4155 53.6224 20.538C53.5759 20.6608 53.5104 20.7648 53.4238 20.8545C53.3358 20.9439 53.2311 21.0153 53.1155 21.0645C52.995 21.1143 52.862 21.1413 52.7141 21.1413C52.6147 21.1413 52.5175 21.131 52.4246 21.1103C52.3318 21.0895 52.2514 21.0583 52.1839 21.0145V21.9235H51.85V19.2485ZM52.7269 19.5168C52.6149 19.5168 52.5115 19.5418 52.4164 19.5918C52.3215 19.6418 52.2431 19.702 52.1842 19.7725V20.69C52.2598 20.7407 52.3432 20.7787 52.4312 20.8025C52.5115 20.8233 52.5961 20.8335 52.6867 20.8335C52.7803 20.8352 52.8731 20.8175 52.9594 20.7815C53.0368 20.75 53.1066 20.7026 53.1642 20.6423C53.2216 20.5812 53.2656 20.509 53.2933 20.43C53.3226 20.3468 53.3397 20.2575 53.3397 20.1575C53.3397 20.064 53.3269 19.9785 53.2995 19.8995C53.2742 19.8208 53.234 19.754 53.1813 19.6958C53.1283 19.6375 53.0651 19.5938 52.989 19.5625C52.9107 19.5313 52.8241 19.5168 52.7269 19.5168Z" fill="black"></path>
<path d="M55.9187 19.2483H56.2526V21.0998H55.9187V19.2483Z" fill="black"></path>
<path fill-rule="evenodd" clip-rule="evenodd" d="M54.5055 19.2483H54.1697V21.1018H54.7759C54.9238 21.1018 55.0463 21.081 55.1477 21.0438C55.2491 21.0063 55.3295 20.9563 55.3885 20.8938C55.4477 20.8313 55.4922 20.7628 55.5175 20.6838C55.5449 20.6048 55.5574 20.5255 55.5574 20.4423C55.5574 20.359 55.5449 20.28 55.5215 20.203C55.4984 20.1263 55.4583 20.0575 55.4013 19.9993C55.3443 19.941 55.2682 19.8933 55.1731 19.8578C55.0779 19.8225 54.9597 19.8038 54.8138 19.8038H54.5055V19.2483ZM54.5078 20.7918V20.1093H54.7551C54.9155 20.1093 55.0317 20.1385 55.1015 20.1968C55.1691 20.2553 55.205 20.3403 55.205 20.4528C55.205 20.563 55.1711 20.646 55.1035 20.7043C55.036 20.7628 54.9175 20.7918 54.7508 20.7918H54.5078Z" fill="black"></path>
<path d="M57.854 20.1413L58.5679 21.1003H58.1582L57.6067 20.3513L57.0469 21.1003H56.6583L57.368 20.1578L56.7004 19.2488H57.1104L57.6195 19.9478L58.1369 19.2488H58.5258L57.854 20.1413Z" fill="black"></path>
<path d="M28.5278 23.3885H27.5033V24.932H27.1694V23.0808H28.8615V24.932H28.5278V23.3885Z" fill="black"></path>
<path d="M30.7563 23.4093H30.0974L30.076 23.7213C30.0529 23.9855 30.0213 24.1978 29.9769 24.3598C29.9324 24.5223 29.8774 24.647 29.8142 24.7343C29.7509 24.8218 29.6769 24.882 29.5923 24.9113C29.505 24.9428 29.4127 24.9583 29.3199 24.957L29.2945 24.6365C29.3304 24.6385 29.3726 24.6303 29.419 24.6095C29.4657 24.5888 29.5122 24.543 29.5564 24.4745C29.6008 24.4035 29.641 24.3038 29.6769 24.1748C29.7128 24.0438 29.7361 23.8733 29.7487 23.6588L29.7825 23.0825H31.0902V24.934H30.7563V23.4093Z" fill="black"></path>
<path fill-rule="evenodd" clip-rule="evenodd" d="M31.7024 23.207C31.7848 23.155 31.8819 23.1135 31.9899 23.0845C32.1 23.0544 32.2136 23.0389 32.3278 23.0388C32.5939 23.0388 32.7819 23.105 32.8876 23.2363C32.9953 23.3673 33.0483 23.5545 33.0483 23.7958V24.9315H32.7355V24.6923C32.6805 24.763 32.6044 24.8255 32.5095 24.8795C32.4144 24.9338 32.2899 24.9608 32.1335 24.9608C31.9603 24.9608 31.8207 24.9108 31.7152 24.811C31.6095 24.7113 31.5568 24.5695 31.5568 24.3888C31.5557 24.3018 31.5744 24.2157 31.6115 24.137C31.6464 24.0651 31.6969 24.0019 31.7594 23.952C31.8207 23.902 31.8967 23.8645 31.9856 23.8395C32.0742 23.8145 32.1674 23.8 32.2665 23.8C32.3474 23.8009 32.428 23.8093 32.5073 23.825C32.5893 23.8393 32.6672 23.8712 32.7355 23.9185C32.7355 23.8333 32.7312 23.7543 32.7207 23.6813C32.7101 23.6088 32.691 23.5463 32.6617 23.4963C32.632 23.4463 32.5899 23.4048 32.5326 23.3775C32.4756 23.3485 32.4018 23.334 32.3087 23.334C32.1927 23.334 32.0953 23.3465 32.0192 23.3735C31.9434 23.4005 31.8674 23.4318 31.7913 23.4693L31.7024 23.207ZM32.252 24.6633C32.3745 24.6633 32.4739 24.6383 32.5497 24.584C32.6183 24.5388 32.6809 24.4849 32.7357 24.4238V24.1888C32.6195 24.1058 32.4779 24.0663 32.3132 24.0663C32.2633 24.0661 32.2137 24.0724 32.1654 24.0848C32.1167 24.0973 32.0725 24.116 32.0366 24.141C32.0007 24.166 31.9688 24.1973 31.9457 24.2368C31.9223 24.2763 31.9118 24.32 31.9118 24.372C31.9118 24.4593 31.9414 24.53 32.0007 24.584C32.0597 24.6363 32.142 24.6633 32.252 24.6633Z" fill="black"></path>
<path d="M33.3783 23.0802H35.0894V23.4087H34.4005V24.9315H34.0669V23.409H33.3783V23.0802Z" fill="black"></path>
<path fill-rule="evenodd" clip-rule="evenodd" d="M36.9759 24.7301C36.883 24.8131 36.7753 24.8736 36.6485 24.9131C36.5217 24.9526 36.3949 24.9736 36.2702 24.9736C36.1285 24.9754 35.9877 24.9521 35.8542 24.9049C35.7294 24.8591 35.6237 24.7946 35.5371 24.7094C35.4505 24.6241 35.381 24.5221 35.3343 24.4036C35.2878 24.2849 35.2625 24.1519 35.2625 24.0061C35.2613 23.8771 35.2835 23.7489 35.328 23.6277C35.3688 23.5139 35.4328 23.4098 35.516 23.3219C35.6017 23.2335 35.7045 23.1634 35.8183 23.1159C35.9385 23.0659 36.0759 23.0389 36.2323 23.0389C36.3486 23.0383 36.464 23.0595 36.5724 23.1014C36.676 23.1398 36.7708 23.1985 36.8511 23.2742C36.9306 23.3502 36.9938 23.4414 37.0371 23.5424C37.0835 23.6464 37.1069 23.7609 37.1069 23.8876C37.1069 23.9729 37.1004 24.0459 37.0858 24.1101H35.6408C35.6556 24.2851 35.7209 24.4224 35.8414 24.5201C35.9619 24.6179 36.114 24.6656 36.2978 24.6656C36.4203 24.6656 36.5323 24.6471 36.6314 24.6096C36.7308 24.5721 36.8132 24.5264 36.8744 24.4721L36.9759 24.7301ZM36.2154 23.3469C36.0422 23.3469 35.9049 23.3927 35.8015 23.4862C35.6991 23.5779 35.6338 23.7037 35.6177 23.8399H36.7584C36.7499 23.6859 36.6992 23.5654 36.6043 23.4779C36.5092 23.3927 36.3804 23.3469 36.2154 23.3469Z" fill="black"></path>
<path d="M37.2696 23.0807L37.9602 23.9729L37.2379 24.9319H37.6476L38.3363 23.9731L37.6921 23.0807H37.2696Z" fill="black"></path>
<path d="M38.7525 23.0807H38.4186V24.9319H38.7525V23.0807Z" fill="black"></path>
<path d="M39.2109 23.9729L39.9459 24.9319H39.532L38.8348 23.9729L39.4833 23.0804H39.8975L39.2109 23.9729Z" fill="black"></path>
<path fill-rule="evenodd" clip-rule="evenodd" d="M41.7986 24.7301C41.7058 24.8131 41.5981 24.8736 41.4713 24.9131C41.3491 24.9523 41.2216 24.9727 41.0932 24.9736C40.9515 24.9754 40.8106 24.9521 40.677 24.9049C40.5522 24.8591 40.4468 24.7946 40.3602 24.7094C40.2736 24.6241 40.2038 24.5221 40.1573 24.4036C40.1109 24.2849 40.0855 24.1519 40.0855 24.0061C40.0842 23.8771 40.1064 23.7488 40.1511 23.6277C40.1916 23.5138 40.2557 23.4096 40.3391 23.3219C40.4247 23.2336 40.5274 23.1635 40.6411 23.1159C40.7616 23.0659 40.8989 23.0389 41.0551 23.0389C41.1714 23.0383 41.2868 23.0595 41.3952 23.1014C41.4989 23.1398 41.5937 23.1985 41.6741 23.2742C41.7535 23.3503 41.8166 23.4415 41.8599 23.5424C41.9066 23.6464 41.9297 23.7609 41.9297 23.8876C41.9297 23.9729 41.9234 24.0459 41.9086 24.1101H40.4636C40.4784 24.2851 40.5439 24.4224 40.6642 24.5201C40.7847 24.6179 40.9368 24.6656 41.1206 24.6656C41.2431 24.6656 41.3551 24.6471 41.4545 24.6096C41.5536 24.5721 41.636 24.5264 41.6972 24.4721L41.7986 24.7301ZM41.0385 23.3469C40.8653 23.3469 40.7279 23.3927 40.6243 23.4862C40.5219 23.5779 40.4566 23.7037 40.4405 23.8399H41.5812C41.573 23.6859 41.5222 23.5654 41.4271 23.4779C41.332 23.3927 41.2012 23.3469 41.0385 23.3469Z" fill="black"></path>
<path d="M42.963 22.1342C42.9798 22.3504 43.0875 22.4587 43.2841 22.4587C43.4698 22.4587 43.5735 22.3504 43.5883 22.1342H43.9009C43.9009 22.2172 43.8861 22.2922 43.8564 22.3629C43.8271 22.4337 43.7847 22.4939 43.7319 22.5439C43.677 22.5939 43.6137 22.6354 43.5376 22.6644C43.4616 22.6957 43.377 22.7102 43.2818 22.7102C43.1784 22.7102 43.0875 22.6957 43.0094 22.6644C42.9314 22.6334 42.8636 22.5939 42.8109 22.5439C42.7581 22.4939 42.718 22.4337 42.6904 22.3629C42.663 22.2922 42.6482 22.2172 42.6482 22.1342H42.963Z" fill="black"></path>
<path d="M42.7157 24.9319H42.3818V23.0804H42.7157V24.4596L43.8015 23.0804H44.1354V24.9319H43.8015V23.5527L42.7157 24.9319Z" fill="black"></path>
</svg>