<svg width="82" height="38" viewBox="0 0 82 38" fill="none" xmlns="http://www.w3.org/2000/svg">
<path d="M80.103 13.3746L61.6027 18.1463C61.0155 18.2978 60.6617 18.8988 60.8124 19.4886L61.3693 21.6675C61.5201 22.2574 62.1183 22.6128 62.7056 22.4614L81.2059 17.6896C81.7931 17.5382 82.1469 16.9372 81.9961 16.3473L81.4392 14.1684C81.2885 13.5786 80.6902 13.2231 80.103 13.3746Z" fill="#231F20"></path>
<path d="M61.3423 29.7118L60.7854 31.8907C60.6347 32.4806 60.9885 33.0815 61.5757 33.233L80.076 38.0047C80.6632 38.1562 81.2614 37.8008 81.4122 37.2109L81.9691 35.032C82.1199 34.4421 81.7661 33.8411 81.1789 33.6897L62.6786 28.918C62.0914 28.7665 61.4931 29.1219 61.3423 29.7118Z" fill="#231F20"></path>
<path d="M0.593365 14.2127L0.0364608 16.3916C-0.114309 16.9815 0.239495 17.5825 0.826705 17.7339L19.3271 22.5057C19.9143 22.6571 20.5125 22.3017 20.6633 21.7118L21.2202 19.5329C21.371 18.9431 21.0172 18.3421 20.4299 18.1906L1.92959 13.4189C1.34238 13.2674 0.744134 13.6229 0.593365 14.2127Z" fill="#231F20"></path>
<path d="M19.3496 28.8798L0.849327 33.6515C0.262117 33.803 -0.0916874 34.404 0.0590824 34.9939L0.615982 37.1727C0.766752 37.7626 1.365 38.118 1.95221 37.9666L20.4525 33.1948C21.0397 33.0434 21.3935 32.4424 21.2428 31.8525L20.6859 29.6737C20.5351 29.0838 19.9369 28.7284 19.3496 28.8798Z" fill="#231F20"></path>
<path d="M25.9501 1.3013C25.7673 1.08208 25.6527 0.81359 25.6208 0.529373C25.6208 0.1765 25.8843 1.75014e-05 26.3892 1.75014e-05H30.0995C30.2085 0.020072 30.3083 0.0741058 30.3849 0.154416C30.4886 0.242566 30.5775 0.346836 30.6484 0.463212L31.0216 1.03658L40.462 16.6733L50.0781 0.816093C50.216 0.561456 50.4025 0.336584 50.627 0.154416C50.82 0.0555649 51.0275 -0.0114469 51.2417 -0.0440674H54.7325C55.1496 -0.0440674 55.3472 0.110296 55.3472 0.419059C55.361 0.514125 55.361 0.610714 55.3472 0.705779C55.3 0.851028 55.2255 0.985789 55.1276 1.10275C53.0346 4.46974 50.9856 7.8221 48.9804 11.1597C46.9386 14.4679 44.8749 17.776 42.7453 21.1945V36.765C42.7453 37.559 42.3721 37.956 41.6037 37.956H39.4082C38.7057 37.956 38.3544 37.559 38.3544 36.765V21.3268L25.9501 1.3013Z" fill="#231F20"></path>
</svg>